<svg xmlns="http://www.w3.org/2000/svg" width="27.888" height="34" viewBox="0 0 27.888 34">
  <defs>
    <style>
      .cls-1 {
        fill: #fff;
      }
    </style>
  </defs>
  <g id="apple" transform="translate(-46.022)">
    <path id="Path_5" data-name="Path 5" class="cls-1" d="M55.268,144.125c-5.06-.029-9.246-10.359-9.246-15.619,0-8.593,6.446-10.475,8.931-10.475a10.276,10.276,0,0,1,3.37.829,7.532,7.532,0,0,0,1.924.552,5.988,5.988,0,0,0,1.38-.447,11.063,11.063,0,0,1,4.16-1.006h.01a8.527,8.527,0,0,1,7.136,3.6l.52.782-.749.565a6.3,6.3,0,0,0-3.022,5.2,5.866,5.866,0,0,0,3.273,5.423c.469.282.954.573.954,1.209,0,.415-3.315,9.334-8.129,9.334a6.538,6.538,0,0,1-2.745-.666,5.567,5.567,0,0,0-2.444-.589,6.285,6.285,0,0,0-1.935.523,9.477,9.477,0,0,1-3.356.783Z" transform="translate(0 -110.125)"/>
    <path id="Path_6" data-name="Path 6" class="cls-1" d="M261.542,0c.125,4.521-3.108,7.657-6.337,7.46C254.673,3.853,258.434,0,261.542,0Z" transform="translate(-195.245)"/>
  </g>
</svg>
