<svg xmlns="http://www.w3.org/2000/svg" width="36.005" height="26.966" viewBox="0 0 36.005 26.966">
  <g id="list" transform="translate(0 -64.267)">
    <path id="Path_13" data-name="Path 13" d="M3.313,70.9H32.691a3.314,3.314,0,0,0,0-6.629H3.313a3.314,3.314,0,0,0,0,6.629Zm0-4.519H32.691a1.2,1.2,0,0,1,0,2.41H3.313a1.2,1.2,0,0,1,0-2.41Z" transform="translate(0)" fill="#fff"/>
    <path id="Path_14" data-name="Path 14" d="M32.691,208.867H3.313a3.314,3.314,0,0,0,0,6.629H32.691a3.314,3.314,0,0,0,0-6.629Zm0,4.519H3.313a1.2,1.2,0,0,1,0-2.41H32.691a1.2,1.2,0,0,1,0,2.41Z" transform="translate(0 -134.431)" fill="#fff"/>
    <path id="Path_15" data-name="Path 15" d="M32.691,353.467H3.313a3.314,3.314,0,0,0,0,6.629H32.691a3.314,3.314,0,0,0,0-6.629Zm0,4.519H3.313a1.2,1.2,0,0,1,0-2.41H32.691a1.2,1.2,0,0,1,0,2.41Z" transform="translate(0 -268.863)" fill="#fff"/>
  </g>
</svg>
