<svg xmlns="http://www.w3.org/2000/svg" width="20.269" height="17.815" viewBox="0 0 20.269 17.815">
  <defs>
    <style>
      .cls-1 {
        fill: #fff;
      }
    </style>
  </defs>
  <g id="supermarket_1_" data-name="supermarket (1)" transform="translate(0 0)">
    <path id="Path_7" data-name="Path 7" class="cls-1" d="M6.53,11.877H17.3a.594.594,0,0,0,.571-.431l2.375-8.313a.594.594,0,0,0-.571-.757H5.161L4.736.465A.594.594,0,0,0,4.157,0H.594a.594.594,0,0,0,0,1.188H3.68l2.144,9.648a1.781,1.781,0,0,0,.708,3.416H17.3a.594.594,0,1,0,0-1.188H6.532a.594.594,0,0,1,0-1.187ZM18.888,3.563l-2.036,7.126H7.008L5.425,3.563Zm0,0"/>
    <path id="Path_8" data-name="Path 8" class="cls-1" d="M150,361.781A1.781,1.781,0,1,0,151.781,360,1.784,1.784,0,0,0,150,361.781Zm1.781-.594a.594.594,0,1,1-.594.594A.595.595,0,0,1,151.781,361.188Zm0,0" transform="translate(-144.062 -345.748)"/>
    <path id="Path_9" data-name="Path 9" class="cls-1" d="M362,361.781A1.781,1.781,0,1,0,363.781,360,1.784,1.784,0,0,0,362,361.781Zm1.781-.594a.594.594,0,1,1-.594.594A.595.595,0,0,1,363.781,361.188Zm0,0" transform="translate(-347.669 -345.748)"/>
  </g>
</svg>
